<svg version="1.1" id="Layer_1" xmlns="http://www.w3.org/2000/svg" xmlns:xlink="http://www.w3.org/1999/xlink" x="0px" y="0px"
	 width="100%" viewBox="0 0 512 512" enable-background="new 0 0 512 512" xml:space="preserve">
<path fill="#FCFCFC" opacity="1.000000" stroke="none" 
	d="
M297.000000,513.000000 
	C198.024033,513.000000 99.548058,513.000000 1.036045,513.000000 
	C1.036045,342.399017 1.036045,171.798004 1.036045,1.098500 
	C171.559311,1.098500 342.118713,1.098500 512.839050,1.098500 
	C512.839050,171.666550 512.839050,342.333252 512.839050,513.000000 
	C441.131317,513.000000 369.315643,513.000000 297.000000,513.000000 
M403.499939,491.160309 
	C432.602997,491.160309 461.706055,491.160309 490.868774,491.160309 
	C490.868774,334.812256 490.868774,178.958176 490.868774,23.174625 
	C334.722626,23.174625 178.868195,23.174625 23.216385,23.174625 
	C23.216385,179.364166 23.216385,335.218536 23.216385,491.160309 
	C149.897659,491.160309 276.198761,491.160309 403.499939,491.160309 
z"/>
<path fill="#000000" opacity="1.000000" stroke="none" 
	d="
M402.999908,491.160309 
	C276.198761,491.160309 149.897659,491.160309 23.216385,491.160309 
	C23.216385,335.218536 23.216385,179.364166 23.216385,23.174625 
	C178.868195,23.174625 334.722626,23.174625 490.868774,23.174625 
	C490.868774,178.958176 490.868774,334.812256 490.868774,491.160309 
	C461.706055,491.160309 432.602997,491.160309 402.999908,491.160309 
M196.998444,257.479584 
	C197.458954,291.021545 224.238281,317.212677 257.857147,317.001495 
	C290.288177,316.797821 316.952850,289.860046 317.001587,257.251282 
	C317.050995,224.211044 290.541962,197.204971 257.857758,196.998474 
	C224.188660,196.785767 197.478073,222.910919 196.998444,257.479584 
z"/>
<path fill="#FEFEFE" opacity="1.000000" stroke="none" 
	d="
M196.998444,257.001770 
	C197.478073,222.910919 224.188660,196.785767 257.857758,196.998474 
	C290.541962,197.204971 317.050995,224.211044 317.001587,257.251282 
	C316.952850,289.860046 290.288177,316.797821 257.857147,317.001495 
	C224.238281,317.212677 197.458954,291.021545 196.998444,257.001770 
z"/>
</svg>